<?xml version="1.0" encoding="utf-8"?>
<!DOCTYPE svg PUBLIC "-//W3C//DTD SVG 1.1//EN" "http://www.w3.org/Graphics/SVG/1.1/DTD/svg11.dtd">
<svg version="1.1" id="Layer_2" xmlns="http://www.w3.org/2000/svg" xmlns:xlink="http://www.w3.org/1999/xlink" x="0px" y="0px"
   width="60px" height="1360px" viewBox="0 0 60 1360" enable-background="new 0 0 60 1360" xml:space="preserve">
<polygon fill="#FFFFFF" points="23.002,48.817 36.998,34.815 23.002,20.817 "/>
<polygon fill="#FFC0A4" points="24.984,209.572 38.98,195.57 24.984,181.572 "/>
<polygon fill="#EB5E28" points="24.98,370.327 38.98,356.327 24.98,342.327 "/>
<polygon fill="#B33C12" points="24.98,531.082 38.98,517.082 24.98,503.082 "/>

<polygon fill="#FFC0A4" points="24.982,691.837 21.02,687.878 31.061,677.835 21.02,667.796 24.982,663.837 38.98,677.835 "/>
<polygon fill="#F1EAE0" points="24.982,852.592 21.02,848.635 31.061,838.592 21.02,828.553 24.982,824.592 38.98,838.592 "/>

<polygon fill="#EB5E28" points="24.982,1013.347 23.199,1011.565 35.414,999.347 23.199,987.132 24.982,985.347 38.98,999.347 "/>
<polygon fill="#B33C12" points="24.982,1174.102 23.199,1172.32 35.414,1160.102 23.199,1147.887 24.982,1146.102 38.98,1160.102 "/>
<polygon fill="#ffffff" points="24.982,1334.857 23.199,1333.075 35.414,1320.857 23.199,1308.642 24.982,1306.857 38.98,1320.857 "/>
</svg>