<?xml version="1.0" encoding="utf-8"?>
<!-- Generator: Adobe Illustrator 17.0.0, SVG Export Plug-In . SVG Version: 6.00 Build 0)  -->
<!DOCTYPE svg PUBLIC "-//W3C//DTD SVG 1.1//EN" "http://www.w3.org/Graphics/SVG/1.1/DTD/svg11.dtd">
<svg version="1.1" id="Layer_1" xmlns="http://www.w3.org/2000/svg" xmlns:xlink="http://www.w3.org/1999/xlink" x="0px" y="0px"
	 width="892.552px" height="247.417px" viewBox="0 0 892.552 247.417" enable-background="new 0 0 892.552 247.417"
	 xml:space="preserve">
<g>
	<path d="M90.665,20.496v-5.593H65.686v5.593c0,0,8.245,0,8.695,0v22.079c-0.451,0-8.695,0-8.695,0v5.594h24.979v-5.594
		c0,0-9.036,0-9.486,0V20.496C81.629,20.496,90.665,20.496,90.665,20.496z"/>
	<g>
		<path d="M132.163,20.716h-9.96v9.126c0,0,5.375-0.148,9.801-0.148c4.427,0,5.532-0.882,5.532-5.004
			C137.536,19.98,132.163,20.716,132.163,20.716z"/>
		<path d="M103.389,7.175v49.014h51.696V7.175H103.389z M144.651,40.145c0,6.918,0,7.653,0,7.653h-7.115v-7.212
			c0,0,0-5.593-4.106-5.593c-4.112,0-11.227,0.147-11.227,0.147v12.805h-6.957v-32.97h20.552c0,0,8.854-0.441,8.854,8.538
			c0,8.978-5.374,9.42-5.374,9.42S144.651,33.227,144.651,40.145z"/>
	</g>
	<polygon points="164.57,14.976 164.57,20.422 169.472,20.422 169.472,42.647 164.57,42.647 164.57,48.091 194.765,48.091 
		194.765,37.349 188.758,37.349 188.758,42.647 175.953,42.647 175.953,33.668 185.436,33.668 185.436,28.223 175.953,28.223 
		175.953,20.422 188.283,20.422 188.283,25.721 194.765,25.721 194.765,14.976 	"/>
	<g>
		<path d="M235.869,20.569H225.12v22.078c0,0,5.849,0,11.225,0c5.373,0,5.532-6.477,5.532-6.477s0-1.029,0-8.536
			C241.877,20.127,235.869,20.569,235.869,20.569z"/>
		<path d="M206.306,7.175v49.014H258V7.175H206.306z M236.658,48.387c-12.963,0-18.811,0.146-18.811,0.146V15.123h15.334
			c0,0,15.81-1.618,15.81,11.628v9.273C248.991,36.024,249.621,48.387,236.658,48.387z"/>
	</g>
	<path d="M0,7.175v49.014h51.694V7.175H0z M41.103,48.091H32.25l-5.692-23.989L20.394,48.24h-8.695L4.428,15.123h7.114l4.899,25.17
		l6.323-25.17l7.748,0.147l6.323,25.464l4.743-25.611h6.797L41.103,48.091z"/>
</g>
<g>
	<path fill-rule="evenodd" clip-rule="evenodd" d="M322.621,190.809c6.758,0,13.515,0,20.374,0c0.038,0.779,0.091,1.354,0.092,1.928
		c0.003,12.256-0.032,24.512,0.045,36.768c0.011,1.695-0.538,2.079-2.106,2.042c-3.936-0.095-7.873-0.031-11.493-0.031
		c0.149-2.645,0.386-5.133,0.408-7.62c0.057-6.482,0.019-12.962,0.019-19.445c0-0.631,0-1.266,0-2.323
		c-2.608,0.25-4.974,0.477-7.338,0.701C322.621,198.823,322.621,194.815,322.621,190.809z"/>
	<path fill-rule="evenodd" clip-rule="evenodd" d="M410.674,190.911c9.518,0,19.025,0,28.835,0
		c-1.346,3.505-2.611,6.903-3.993,10.254c-0.143,0.347-0.966,0.552-1.486,0.576c-1.516,0.077-3.037,0.027-4.929,0.027
		c1.375,3.781,2.647,7.281,4.079,11.214c0.381-0.824,0.61-1.247,0.776-1.691c2.402-6.396,4.809-12.79,7.172-19.199
		c0.326-0.886,0.708-1.302,1.743-1.297c10.427,0.041,20.854,0.024,31.281,0.029c0.284,0,0.568,0.059,0.957,0.101
		c0,4.083,0,8.109,0,11.909c-3.367-0.179-6.629-0.299-9.881-0.547c-1.899-0.146-1.5,1.115-1.545,2.184
		c-0.045,1.135-0.071,2.162,1.593,1.984c1.852-0.199,3.716-0.278,5.67-0.416c0,3.36,0,6.753,0,10.196
		c-1.897-0.12-3.745-0.19-5.584-0.369c-1.334-0.128-1.737,0.379-1.7,1.693c0.103,3.562-0.237,3.069,2.864,2.935
		c2.827-0.123,5.639-0.636,8.7-1.005c0,2.573,0,5.486,0,8.4c0,3.627,0,3.627-3.65,3.627c-6.422,0-12.844,0-19.266,0
		c-0.64,0-1.279,0-2.029,0c1.374-4.413,0.636-8.773,0.729-13.084c0.121-5.646,0.028-11.296-0.324-17.072
		c-0.26,0.534-0.543,1.06-0.773,1.604c-3.818,8.938-7.649,17.868-11.415,26.827c-0.527,1.252-1.14,1.878-2.587,1.758
		c-1.697-0.141-3.423-0.133-5.122-0.003c-1.465,0.11-2.185-0.424-2.763-1.779c-4.905-11.481-9.867-22.938-14.865-34.38
		C412.494,193.856,411.539,192.45,410.674,190.911z"/>
	<path fill-rule="evenodd" clip-rule="evenodd" d="M358.77,231.507c-4.022,0-8.309,0.021-12.594-0.04
		c-0.333-0.005-0.767-0.543-0.954-0.93c-0.162-0.336-0.048-0.808-0.048-1.221c0-12.136,0-24.273,0-36.407c0-0.634,0-1.266,0-1.99
		c6.007,0,11.806,0,17.719,0c0,3.989,0,7.893,0,11.847c-1.512-0.184-2.892-0.351-4.579-0.559c0,1.249-0.066,2.286,0.041,3.306
		c0.033,0.329,0.514,0.618,0.812,0.903c0.064,0.06,0.228,0.01,0.346,0.019c5.55,0.445,5.543,0.445,5.552-5.07
		c0.007-3.356,0.039-6.712,0.069-10.069c0.002-0.1,0.103-0.2,0.204-0.386c4.17,0,8.383,0,12.77,0
		c0.036,0.671,0.097,1.294,0.098,1.918c0.006,12.196-0.032,24.391,0.043,36.586c0.011,1.744-0.534,2.188-2.204,2.139
		c-3.877-0.114-7.759-0.036-11.751-0.036c1.404-4.561,0.501-9.092,0.778-13.563c0.074-1.191-0.293-1.732-1.58-1.622
		c-1.628,0.141-3.848-0.475-4.736,0.37c-0.862,0.817-0.389,3.068-0.447,4.694c-0.047,1.295-0.064,2.596,0.004,3.888
		C358.415,227.303,358.604,229.321,358.77,231.507z"/>
	<path fill-rule="evenodd" clip-rule="evenodd" d="M476.889,231.319c0.129-2.782,0.353-5.564,0.368-8.35
		c0.049-8.718,0.046-17.438-0.006-26.158c-0.01-1.959-0.304-3.917-0.466-5.897c5.799,0,11.965-0.498,18.018,0.11
		c10.863,1.093,15.534,12.36,9.164,21.293c-0.137,0.188-0.265,0.386-0.552,0.809c7.109,4.045,6.803,11.474,8.181,18.269
		c-4.792,0-9.633,0-14.502,0c1.489-5.979-1.287-10.942-6.312-11.537c0,3.748,0,7.505,0,11.461
		C486.282,231.319,481.414,231.319,476.889,231.319z M490.679,201.933c0,2.373,0,4.741,0,7.119c3.298-0.273,4.675-1.603,4.445-4.061
		C494.921,202.825,493.245,201.671,490.679,201.933z"/>
	<path fill-rule="evenodd" clip-rule="evenodd" d="M539.082,190.989c0,4.714,0,9.388,0,14.025c-2.739-0.723-5.35-1.594-8.029-2.076
		c-3.349-0.6-6.205,0.541-8.147,3.403c-1.891,2.789-2.195,5.816-0.659,8.878c1.416,2.825,3.83,4.247,6.934,4.456
		c2.928,0.197,3.492-0.518,2.962-3.656c-2.065,0-4.157,0-6.431,0c0-3.268,0-6.443,0-9.574c5.665,0,11.301,0.019,16.937-0.016
		c1.244-0.009,1.248,0.719,1.245,1.611c-0.015,4.652-0.049,9.306,0.023,13.955c0.018,1.271,0.465,2.529,0.554,3.802
		c0.041,0.579-0.116,1.437-0.511,1.736c-6.493,4.929-13.75,6.46-21.483,3.849c-7.799-2.632-12.462-8.393-13.802-16.461
		c-1.976-11.913,5.223-22.191,16.819-23.83C529.871,190.471,534.412,190.989,539.082,190.989z"/>
	<path fill-rule="evenodd" clip-rule="evenodd" d="M379.879,231.507c0.133-2.585,0.357-5.012,0.367-7.439
		c0.043-9.242,0.044-18.484-0.005-27.729c-0.011-1.781-0.322-3.559-0.503-5.423c7.943,0,16.147,0,24.525,0c0,3.901,0,7.789,0,11.399
		c-3.246-0.184-6.444-0.337-9.636-0.562c-1.275-0.091-1.785,0.292-1.732,1.66c0.134,3.411-0.424,3.034,3.014,3.001
		c1.335-0.015,2.67-0.288,4.176-0.464c0,3.429,0,6.886,0,10.274c-2.341-0.148-4.6-0.294-7.019-0.447c0,1.513,0,2.761,0,4.436
		c3.753-0.257,7.403-0.509,11.242-0.772c-0.01-0.045,0.114,0.268,0.117,0.585c0.013,3.298,0,6.594,0.016,9.89
		c0.004,0.908-0.069,1.615-1.282,1.609c-7.771-0.032-15.542-0.026-23.312-0.04C379.742,231.486,379.639,231.393,379.879,231.507z"/>
	<path fill-rule="evenodd" clip-rule="evenodd" d="M570.004,231.443c-8.382,0-16.558,0-24.365,0c0.105-3.13,0.287-6.197,0.303-9.265
		c0.039-8.719,0.039-17.436-0.012-26.156c-0.007-1.668-0.32-3.334-0.503-5.092c7.978,0,16.23,0,24.573,0c0,3.932,0,7.797,0,11.402
		c-3.205-0.188-6.396-0.334-9.578-0.584c-1.474-0.115-2.082,0.401-1.864,1.877c0.053,0.346,0.052,0.713,0,1.058
		c-0.202,1.431,0.449,1.904,1.81,1.767c1.746-0.174,3.501-0.272,5.393-0.412c0,3.31,0,6.738,0,10.183
		c-2.283-0.144-4.589-0.29-6.753-0.426c-0.226,0.323-0.339,0.412-0.351,0.515c-0.435,3.722-0.432,3.807,3.262,3.695
		c2.678-0.083,5.351-0.425,8.086-0.656C570.004,223.178,570.004,227.212,570.004,231.443z"/>
</g>
<g>
	<path fill-rule="evenodd" clip-rule="evenodd" d="M762.871,200.615c0,4.969-0.497,20.372-0.497,20.372
		c0,2.981,0.994,4.307,3.809,4.307v1.324h-11.095v-1.324c2.815,0,4.307-1.325,4.307-4.307l0.991-25.175
		c-0.827-1.987-1.656-2.65-3.809-2.814v-1.16h8.446l8.944,23.518l9.109-23.518h7.617v1.16c-2.152,0-3.312,0.992-3.312,3.312
		l0.994,24.346c0,3.645,0.662,4.639,3.643,4.639v1.324h-12.752v-1.324c2.484,0,3.643-0.828,3.479-4.639
		c0,0-0.497-17.059-0.665-20.04l-6.126,16.895c-0.829,2.153-1.655,4.637-2.32,7.287l-1.986,0.166
		c-0.496-1.822-1.822-5.136-1.822-5.136S764.694,205.419,762.871,200.615L762.871,200.615z"/>
	<path fill-rule="evenodd" clip-rule="evenodd" d="M752.438,226.784c-0.665-0.166-1.326-0.166-1.988-0.166
		c-1.327,0-3.645,0.662-6.459,0.662c-10.766,0-18.715-6.459-18.715-18.384c0-10.104,7.453-17.887,18.879-17.887
		c2.65,0,5.633,0.497,8.115,1.491c0.497-0.497,0.665-0.828,1.159-1.325h0.993c-0.164,1.822-0.826,7.783-0.826,7.783h-0.993
		c-0.662-3.478-2.485-5.797-8.283-5.797c-6.956,0-13.247,5.467-13.247,15.569c0,11.428,6.459,16.395,13.579,16.395
		c4.639,0,7.454-2.649,9.274-5.961l1.161,0.497L752.438,226.784L752.438,226.784z"/>
	<path fill-rule="evenodd" clip-rule="evenodd" d="M721.135,198.295h-1.158c-0.165-3.145-1.159-4.14-3.645-4.14h-4.803v26.003
		c0,4.307,0.829,5.135,3.644,5.135v1.324h-12.42v-1.324c2.815,0,3.641-0.828,3.641-5.301v-25.837h-4.803
		c-3.146,0-3.641,0.828-4.471,4.14h-1.159l0.827-7.451l0.829,0.165c0.333,0.828,0.994,0.828,2.982,0.828h16.065
		c2.979,0,3.642,0,4.307-0.993h0.993L721.135,198.295L721.135,198.295z"/>
	<path fill-rule="evenodd" clip-rule="evenodd" d="M686.023,227.446c-2.318,0-4.142-0.331-5.465-0.828
		c-1.327-0.331-2.318-0.828-2.815-1.16c-0.664,0.663-1.161,1.491-1.161,1.491l-0.991-0.331l0.826-7.783l1.159,0.164
		c0.664,3.645,3.147,6.295,8.281,6.295c3.974,0,6.625-3.314,6.625-6.956c0-2.981-1.159-4.473-5.133-7.454
		c-1.326-0.827-2.486-1.49-3.479-2.318c-3.643-2.318-5.962-4.969-5.962-9.275c0-4.968,4.142-8.28,9.606-8.28
		c3.146,0,5.135,0.994,5.797,1.325l1.158-1.325l0.83,0.166l-0.83,7.12l-1.158-0.164c0-3.312-1.988-4.804-5.3-4.804
		c-3.148,0-5.465,1.656-5.465,4.804c0,2.814,2.152,4.638,4.635,6.294c1.327,0.826,2.32,1.489,3.315,2.153
		c5.795,4.139,7.121,6.789,7.121,10.765C697.617,223.14,693.146,227.446,686.023,227.446L686.023,227.446z"/>
	<path fill-rule="evenodd" clip-rule="evenodd" d="M667.144,198.295h-1.326c0-2.98-1.323-4.14-3.975-4.14h-7.452v13.085h4.803
		c2.485,0,2.982-1.326,3.312-3.479h1.159v9.275h-1.159c-0.329-2.486-0.826-3.479-3.477-3.479h-4.638v11.096
		c0,4.142,0.994,4.639,3.644,4.639v1.324h-12.588v-1.324c3.147,0,3.644-0.828,3.644-4.639v-24.346c0-2.319-0.995-3.312-3.644-3.312
		v-1.16h17.224c2.982,0,3.645-0.165,4.141-1.159h1.159L667.144,198.295L667.144,198.295z"/>
	<path fill-rule="evenodd" clip-rule="evenodd" d="M845.848,200.284v19.875c0,4.307,0.994,5.135,3.644,5.135v1.324h-19.545v-1.324
		c1.492,0,2.815-0.497,2.815-1.491c0-0.662-0.165-1.823-0.497-2.981l-1.491-4.803h-10.93c-0.165,0.661-2.152,6.128-2.152,7.619
		c0,1.325,1.49,1.656,2.484,1.656v1.324h-9.108v-1.324c1.656,0,2.979-0.167,4.139-3.645l8.446-26.996
		c-0.497-1.16-1.158-1.491-2.317-1.655v-1.16h7.453l8.941,28.321c0.829,2.981,1.658,4.472,2.982,5.135
		c1.988-0.663,2.485-1.325,2.485-5.135v-23.85c-1.491-1.987-1.656-3.312-4.474-3.312v-1.16h8.447l13.911,23.684v-18.052
		c0-3.645-0.826-4.472-3.642-4.472v-1.16h18.549v1.16c-1.159,0-2.154,0.495-2.154,1.655c0,0.828,0.332,1.656,0.663,2.65l5.3,11.428
		l5.135-11.097c0.827-1.491,0.994-2.319,0.994-3.147c0-0.994-0.662-1.489-2.153-1.489v-1.16h8.777v1.16
		c-2.153,0-3.477,1.986-4.471,4.306l-6.791,13.911v9.109c0,3.976,0.994,4.97,3.644,4.97v1.324h-12.589v-1.324
		c2.651,0,3.645-0.994,3.645-4.97v-7.783l-7.285-15.403c-1.328-2.981-1.824-3.645-2.65-4.14c-1.656,0.661-2.154,1.821-2.154,4.472
		v25.505c0,0,0.166,1.988,0.331,4.306l-2.154,0.166L845.848,200.284L845.848,200.284z M825.144,198.628l-4.638,15.07h9.606
		L825.144,198.628L825.144,198.628z"/>
	<path fill-rule="evenodd" clip-rule="evenodd" d="M804.607,213.699c0,0-1.489,0-2.483,0v7.122c0,3.645,0.994,4.473,3.81,4.473
		v1.324H793.18v-1.324c2.65,0,3.644-0.994,3.644-4.639v-23.352c0-3.645-0.994-4.306-3.644-4.306v-1.16h9.605
		c9.274,0,14.742,2.815,14.742,10.435C817.527,210.22,810.901,213.699,804.607,213.699L804.607,213.699z M802.95,194.156h-0.826
		v17.059h1.491c5.465,0,8.279-2.483,8.279-8.777C811.894,196.143,809.41,194.156,802.95,194.156L802.95,194.156z"/>
	<path fill-rule="evenodd" clip-rule="evenodd" d="M746.806,219.993c-6.294,0-10.6-4.472-10.6-10.931
		c0-6.128,4.474-10.931,10.6-10.931c5.962,0,10.435,4.638,10.435,10.931C757.241,215.19,752.603,219.993,746.806,219.993
		L746.806,219.993z M746.806,200.119c-4.306,0-5.797,4.141-5.797,8.943c0,4.473,1.326,8.944,5.797,8.944
		c4.307,0,5.633-4.472,5.633-9.11C752.438,204.425,750.783,200.119,746.806,200.119L746.806,200.119z"/>
	<path fill-rule="evenodd" clip-rule="evenodd" d="M673.935,218.006v-1.161c1.656,0,1.985-0.497,1.985-0.994
		c0-0.661-0.164-1.158-0.329-1.655c0,0-0.332-1.324-0.664-2.318h-6.46l-0.662,2.154c-0.164,0.495-0.332,0.992-0.332,1.655
		c0,0.661,0.665,1.158,1.658,1.158v1.161h-6.461v-1.161c1.658,0,2.321-0.497,2.982-2.318l4.968-14.905
		c-0.165-0.663-0.661-1.16-1.656-1.16v-1.158h5.3c4.306,12.587,5.465,15.898,5.465,15.898c0.83,2.816,1.656,3.644,2.982,3.644v1.161
		H673.935L673.935,218.006z M671.614,201.94l-2.483,8.116h5.133L671.614,201.94L671.614,201.94z"/>
</g>
<g>
	<path d="M386.048,4.466l-3.221-0.504h-0.256V1.483h17.361v2.478h-0.482c-1.989-0.246-2.98,0.504-2.98,2.479v1.244l7.439,38.212
		l4.467-25.062l-2.477-12.65c-0.5-3.224-1.734-4.467-3.972-4.222h-0.257V1.483h16.872v2.478h-0.241
		c-2.729-0.246-3.972,0.75-3.972,2.983l7.444,38.703h0.491l6.705-36.721V7.438c0-2.727-1.247-3.722-3.972-3.477h-0.742V1.483h14.622
		v2.478h-0.734l-3.475,0.504l-2.23,4.955l-11.66,55.324h-3.468l-7.196-36.225l-7.449,36.225h-3.719L387.781,8.183L386.048,4.466z"/>
	<path d="M464.685,0.738v21.83h-2.228v-0.745c0-12.403-3.469-18.604-10.414-18.604c-4.716-0.247-7.191,2.233-6.953,7.691
		c0,2.734,0.748,5.459,2.486,7.939l7.439,6.701l9.179,9.182c2.482,3.714,3.722,8.43,3.722,13.638
		c0,10.424-4.961,15.633-14.638,15.633c-3.722,0-7.44-1.243-11.16-3.973l-1.496,3.732h-1.737V41.676h1.989v0.744
		c0,6.694,1.483,11.659,4.216,15.132c2.237,2.478,4.712,3.722,7.443,3.722c5.711,0,8.685-3.222,8.685-9.928
		c0-6.196-3.725-12.156-11.165-17.857c-7.695-5.707-11.659-11.909-11.659-19.104c-0.249-4.469,1.247-7.941,3.964-10.42
		C444.596,1.234,447.576,0,451.291,0c3.725,0,6.953,1.234,10.176,3.964l1.731-3.226H464.685z"/>
	<path d="M482.06,49.117c0,3.718-1.735,5.703-5.458,5.953l1.729,4.715c1.238,1.486,2.978,2.23,4.967,2.23l4.464-1.986l1.243-6.94
		V7.684c-0.252-2.477-1.243-3.718-3.469-3.718h-1.741V1.483h19.1v2.482h-1.735c-2.229,0-3.475,1.241-3.219,3.718v43.664
		c-0.256,8.936-4.972,13.397-14.145,13.651c-3.23-0.255-5.963-1.239-7.697-3.479c-2.724-2.73-3.963-5.956-3.963-10.172l1.985-4.96
		l3.226-1.736C480.07,44.652,481.809,46.141,482.06,49.117"/>
</g>
<g>
	<path fill-rule="evenodd" clip-rule="evenodd" d="M705.816,50.038c-2.709,0-5.27,0-7.873,0c-0.082-0.488-0.2-0.929-0.222-1.378
		c-0.076-1.592-0.127-3.185-0.18-4.776c-0.061-1.888-0.111-3.778-0.177-5.666c-0.045-1.349-0.116-2.695-0.155-4.045
		c-0.064-2.132-0.099-4.265-0.167-6.397c-0.056-1.643-0.143-3.284-0.219-5.035c-2.405,9.031-5.45,17.766-8.114,26.561
		c-0.721,0.185-5.7,0.204-6.535,0.032c-2.357-8.705-5.093-17.348-6.764-26.27c-0.057,0.001-0.108,0.002-0.164,0.003
		c-0.028,0.137-0.082,0.274-0.085,0.412c-0.013,0.433,0,0.866-0.013,1.299c-0.056,2.105-0.108,4.211-0.177,6.315
		c-0.037,1.159-0.101,2.317-0.156,3.477c-0.107,2.263-0.214,4.525-0.327,6.788c-0.103,2.021-0.203,4.04-0.325,6.058
		c-0.05,0.855-0.147,1.705-0.232,2.669c-2.508,0.003-4.977,0.003-7.537,0.003c0-0.378-0.016-0.64,0.002-0.898
		c0.037-0.564,0.09-1.127,0.133-1.692c0.1-1.262,0.194-2.523,0.292-3.786c0.009-0.107,0.019-0.216,0.024-0.324
		c0.058-1.294,0.105-2.587,0.179-3.881c0.098-1.749,0.217-3.496,0.331-5.247c0.103-1.612,0.213-3.225,0.316-4.839
		c0.114-1.749,0.219-3.497,0.332-5.246c0.104-1.586,0.204-3.172,0.32-4.759c0.107-1.529,0.235-3.056,0.354-4.567
		c0.594-0.202,9.382-0.274,10.815-0.089c1.264,3.932,2.387,7.957,3.566,11.961c1.181,4.003,2.117,8.07,2.999,12.163
		c1.891-8.211,4.553-16.165,7.156-24.16c3.543,0,7.025,0,10.596,0c0.076,0.613,0.192,1.217,0.225,1.824
		c0.081,1.643,0.11,3.291,0.188,4.935c0.095,2.02,0.213,4.04,0.324,6.059c0.105,1.965,0.216,3.929,0.322,5.894
		c0.111,2.047,0.219,4.093,0.33,6.14c0.106,1.967,0.203,3.932,0.327,5.898c0.077,1.262,0.195,2.524,0.288,3.786
		C705.832,49.492,705.816,49.729,705.816,50.038z"/>
	<path fill-rule="evenodd" clip-rule="evenodd" d="M814.248,50.03c-2.363,0-4.598,0-6.78,0c0-1.299-0.034-2.537,0.002-3.778
		c0.322-10.844,0.053-21.689,0.148-32.534c0.002-0.288,0.026-0.577,0.044-0.919c2.707,0,5.339,0,8.082,0
		c0.004,2.428,0.009,4.799,0.009,7.171c0.002,2.35,0.002,4.701,0.002,7.208c0.274-0.246,0.457-0.381,0.61-0.546
		c1.457-1.584,3.3-2.373,5.392-2.717c2.323-0.382,4.507-0.029,6.598,1.037c1.643,0.834,2.876,2.076,3.84,3.62
		c1.111,1.777,1.671,3.724,1.931,5.788c0.332,2.611,0.188,5.186-0.59,7.691c-0.95,3.078-2.734,5.57-5.581,7.19
		c-1.474,0.837-3.065,1.307-4.784,1.356c-1.191,0.035-2.379,0.054-3.525-0.281c-1.806-0.529-3.385-1.421-4.491-3.008
		c-0.122-0.175-0.257-0.336-0.417-0.544C814.348,47.843,814.628,48.982,814.248,50.03z M826.079,37.117
		c-0.155-0.983-0.223-1.988-0.486-2.938c-0.375-1.344-0.978-2.602-2.266-3.338c-1.724-0.985-3.484-1.102-5.22-0.028
		c-1.616,0.999-2.281,2.546-2.342,4.374c-0.048,1.352-0.028,2.706-0.002,4.059c0.028,1.66,0.668,3.02,2.021,4.039
		c2.174,1.635,5.593,1.146,7.153-1.542C825.763,40.319,825.997,38.753,826.079,37.117z"/>
	<path fill-rule="evenodd" clip-rule="evenodd" d="M779.192,49.951c-0.737,0.18-7.265,0.188-8.056,0.011
		c-0.016-0.293-0.046-0.607-0.046-0.924c-0.002-4.519-0.005-9.038,0.003-13.556c0.003-0.848-0.171-1.656-0.403-2.466
		c-0.452-1.58-1.943-2.681-3.586-2.6c-0.834,0.04-1.624,0.127-2.315,0.603c-1.257,0.871-1.943,2.082-1.957,3.622
		c-0.021,2.46-0.006,4.924-0.006,7.385c0.004,2.354,0.004,4.707,0.004,7.062c0,0.29,0,0.581,0,0.84
		c-0.697,0.192-7.164,0.228-8.006,0.068c-0.177-0.568-0.22-36.204-0.043-37.115c0.573-0.173,7.014-0.212,7.985-0.032
		c0.127,1.56,0.039,3.148,0.055,4.732c0.016,1.622,0.005,3.246,0.005,4.87c0,1.581,0,3.165,0,4.935
		c1.018-1.312,2.147-2.174,3.473-2.749c3.155-1.366,6.219-1.205,9.102,0.728c1.511,1.015,2.418,2.513,3.021,4.208
		c0.538,1.514,0.819,3.066,0.813,4.68c-0.014,4.95,0,9.904-0.003,14.854C779.231,49.397,779.205,49.687,779.192,49.951z"/>
	<path fill-rule="evenodd" clip-rule="evenodd" d="M797.629,50.009c-0.155-0.815-0.306-1.6-0.459-2.397
		c-0.679,0.538-1.299,1.099-1.985,1.555c-1.378,0.922-2.92,1.378-4.581,1.418c-1.157,0.026-2.31,0.074-3.451-0.251
		c-2.952-0.842-4.91-2.712-5.632-5.688c-0.625-2.587-0.132-5.03,1.476-7.216c1.089-1.475,2.599-2.344,4.227-3.025
		c1.981-0.829,4.066-1.249,6.211-1.386c0.939-0.06,1.876-0.148,2.821-0.222c0.28-0.763-0.089-1.817-0.85-2.381
		c-0.829-0.618-1.773-0.898-2.797-0.948c-2.645-0.131-5.148,0.42-7.514,1.606c-0.116,0.059-0.246,0.095-0.457,0.174
		c-0.575-1.687-1-3.375-1.525-5.121c0.634-0.304,1.22-0.645,1.843-0.873c1.906-0.699,3.857-1.23,5.897-1.328
		c1.187-0.057,2.377-0.192,3.555-0.13c2.585,0.138,5.011,0.815,7.039,2.525c1.054,0.888,1.767,2.042,2.261,3.318
		c0.564,1.47,0.86,3,0.852,4.586c-0.014,2.435,0.011,4.868-0.005,7.303c-0.02,2.805,0.044,5.604,0.425,8.381
		C804.438,50.122,799.101,50.202,797.629,50.009z M796.682,38.12c-1.698-0.164-3.284,0.019-4.819,0.589
		c-1.354,0.507-2.294,1.391-2.483,2.898c-0.156,1.233,0.43,2.445,1.431,2.912c1.314,0.613,2.582,0.444,3.797-0.222
		c0.927-0.506,1.669-1.264,1.909-2.308C796.801,40.757,796.811,39.485,796.682,38.12z"/>
	<path fill-rule="evenodd" clip-rule="evenodd" d="M722.501,32.752c0.105-0.965-0.245-1.744-0.978-2.333
		c-0.805-0.647-1.771-0.897-2.793-0.952c-2.622-0.142-5.093,0.439-7.445,1.575c-0.14,0.069-0.29,0.115-0.539,0.209
		c-0.504-1.723-0.992-3.396-1.491-5.092c1.215-0.742,2.487-1.19,3.786-1.548c2.489-0.69,5.04-0.985,7.615-0.817
		c2.521,0.163,4.902,0.831,6.888,2.5c1.06,0.888,1.78,2.037,2.279,3.306c0.575,1.468,0.884,2.992,0.868,4.587
		c-0.029,2.788-0.026,5.573,0,8.362c0.019,1.806,0.085,3.614,0.166,5.423c0.032,0.663,0.175,1.323,0.265,1.973
		c-0.671,0.179-6.549,0.198-7.355,0.028c-0.151-0.768-0.307-1.555-0.474-2.402c-0.518,0.446-0.99,0.877-1.486,1.275
		c-1.265,1.012-2.759,1.524-4.324,1.691c-1.495,0.16-3.021,0.197-4.497-0.283c-2.886-0.937-4.729-2.87-5.373-5.833
		c-0.605-2.785,0.039-5.335,1.922-7.479c0.647-0.731,1.516-1.307,2.365-1.813c1.886-1.122,3.978-1.672,6.14-1.936
		C719.48,33.014,720.931,32.905,722.501,32.752z M722.831,38.188c-1.621-0.358-4.2,0.104-5.368,0.75
		c-1.076,0.6-1.906,1.421-1.945,2.78c-0.039,1.381,0.364,2.408,1.762,2.949c0.87,0.335,1.766,0.308,2.624,0.013
		c1.346-0.467,2.376-1.346,2.757-2.751C722.987,40.722,722.885,39.465,722.831,38.188z"/>
	<path fill-rule="evenodd" clip-rule="evenodd" d="M871.329,39.846c-5.576,0.031-11.052-0.023-16.579,0.021
		c0.164,1.396,0.803,2.397,1.812,3.152c1.059,0.792,2.283,1.188,3.59,1.375c2.865,0.407,5.643-0.055,8.395-0.802
		c0.129-0.037,0.258-0.069,0.39-0.098c0.024-0.005,0.054,0.011,0.186,0.039c0.341,1.737,0.691,3.52,1.051,5.36
		c-0.315,0.15-0.565,0.299-0.834,0.396c-1.765,0.631-3.575,1.046-5.45,1.13c-1.561,0.072-3.134,0.223-4.689,0.127
		c-2.991-0.18-5.758-1.053-8.132-3.01c-1.78-1.471-2.825-3.366-3.527-5.505c-0.605-1.851-0.761-3.766-0.607-5.683
		c0.248-3.112,1.257-5.953,3.316-8.366c1.956-2.297,4.433-3.644,7.414-4.06c2.244-0.314,4.47-0.29,6.635,0.479
		c2.768,0.982,4.694,2.854,5.931,5.509c1.186,2.545,1.476,5.227,1.359,7.978C871.562,38.502,871.43,39.107,871.329,39.846z
		 M863.87,34.078c0.124-0.779-0.121-2.041-0.573-2.75c-0.287-0.451-0.583-0.935-0.987-1.265c-1.429-1.169-3.62-1.194-5.153-0.216
		c-1.201,0.768-1.872,1.912-2.256,3.25c-0.084,0.299-0.119,0.615-0.176,0.916C855.371,34.196,862.883,34.235,863.87,34.078z"/>
	<path fill-rule="evenodd" clip-rule="evenodd" d="M734.398,43.079c0.634,0.267,1.236,0.549,1.861,0.778
		c1.812,0.668,3.667,1.141,5.616,1c0.632-0.044,1.296-0.184,1.861-0.453c1.046-0.499,1.278-1.931,0.463-2.754
		c-0.407-0.409-0.936-0.742-1.469-0.972c-1.688-0.724-3.472-1.202-5.083-2.115c-1.671-0.942-3.081-2.154-3.726-4.003
		c-0.871-2.497-0.414-4.841,1.136-6.962c1.447-1.981,3.522-2.959,5.844-3.49c1.431-0.326,2.891-0.432,4.346-0.319
		c1.724,0.135,3.427,0.424,5.053,1.051c0.325,0.123,0.627,0.306,1.03,0.51c-0.333,1.862-0.882,3.649-1.308,5.431
		c-1.251-0.373-2.399-0.754-3.568-1.051c-1.133-0.287-2.287-0.397-3.443-0.095c-0.595,0.156-1.109,0.397-1.402,0.991
		c-0.433,0.875-0.267,1.633,0.53,2.206c0.866,0.624,1.864,0.967,2.86,1.321c1.346,0.483,2.69,0.97,3.915,1.737
		c1.861,1.167,3.149,2.772,3.459,4.953c0.383,2.693-0.146,5.183-2.278,7.1c-1.189,1.064-2.593,1.738-4.133,2.145
		c-1.312,0.346-2.64,0.476-4,0.52c-2.505,0.082-4.942-0.203-7.314-1.014c-0.435-0.148-0.857-0.33-1.272-0.525
		c-0.319-0.15-0.504-0.401-0.404-0.789c0.417-1.621,0.829-3.242,1.246-4.863C734.245,43.319,734.316,43.231,734.398,43.079z"/>
	<path fill-rule="evenodd" clip-rule="evenodd" d="M844.508,50.038c-2.632,0-5.243,0-7.841,0c-0.183-0.62-0.227-36.163-0.063-37.148
		c0.55-0.181,6.804-0.24,7.892-0.072c0.021,0.017,0.043,0.035,0.061,0.056c0.017,0.02,0.037,0.04,0.043,0.064
		c0.021,0.105,0.055,0.211,0.055,0.317c0.006,12.084,0.009,24.169,0.009,36.255c0,0.108-0.016,0.216-0.037,0.322
		C844.617,49.879,844.575,49.921,844.508,50.038z"/>
</g>
<g>
	<path fill-rule="evenodd" clip-rule="evenodd" d="M105.822,226.428c0,6.677,0,13.352,0,20.013
		c-0.812,0.231-4.776,0.275-6.105,0.069c0-10.257,0-20.525,0-30.854c2.161,0,4.279,0,6.485,0
		c4.051,6.785,8.128,13.614,12.202,20.442c0.068-0.02,0.135-0.044,0.202-0.064c0-6.772,0-13.546,0-20.38c2.093,0,4.095,0,6.161,0
		c0,10.314,0,20.583,0,30.915c-2.206,0-4.36,0-6.631,0c-4.007-6.713-8.046-13.477-12.082-20.243
		C105.977,226.36,105.899,226.396,105.822,226.428z"/>
	<path fill-rule="evenodd" clip-rule="evenodd" d="M181.859,236.018c0-6.747,0-13.492,0-20.223c0.782-0.246,4.86-0.296,6.189-0.079
		c0,10.255,0,20.521,0,30.852c-2.206,0-4.358,0-6.629,0c-4.005-6.712-8.044-13.477-12.079-20.241
		c-0.069,0.018-0.14,0.033-0.208,0.051c0,6.707,0,13.414,0,20.186c-2.093,0-4.061,0-6.027,0c-0.227-0.768-0.326-28.738-0.11-30.803
		c0.734-0.204,4.823-0.265,6.505-0.088c4.037,6.768,8.097,13.57,12.156,20.376C181.724,236.038,181.791,236.029,181.859,236.018z"/>
	<path fill-rule="evenodd" clip-rule="evenodd" d="M212.121,235.022c-2.094,0-4.202,0-6.363,0c0-1.773,0-3.417,0-5.05
		c0.848-0.204,11.205-0.245,12.488-0.046c0,5.495,0,11.003,0,16.515c-0.706,0.231-2.923,0.278-4.189,0.069
		c-0.209-1.015-0.419-2.056-0.652-3.201c-0.19,0.208-0.311,0.333-0.423,0.468c-2.14,2.575-4.938,3.672-8.223,3.585
		c-3.512-0.092-6.653-1.222-9.258-3.632c-2.124-1.965-3.469-4.416-4.17-7.203c-1.201-4.774-0.986-9.47,1.235-13.914
		c2.388-4.773,6.312-7.347,11.679-7.7c3.249-0.21,6.24,0.482,8.898,2.389c2.555,1.833,4.042,4.361,4.617,7.435
		c0.064,0.342,0.047,0.702,0.072,1.119c-2.086,0-4.097,0-6.21,0c-0.103-0.284-0.223-0.609-0.339-0.939
		c-0.926-2.643-2.901-4.1-5.69-4.197c-3.436-0.116-6,1.509-7.276,4.86c-1.412,3.705-1.466,7.495,0.011,11.196
		c1.845,4.633,6.125,5.59,9.985,4.295C210.691,240.275,212.352,237.58,212.121,235.022z"/>
	<path fill-rule="evenodd" clip-rule="evenodd" d="M99.052,194.242c-0.013,3.572-0.769,6.946-2.756,9.967
		c-2.494,3.786-6.087,5.755-10.557,6.12c-2.545,0.207-5.047-0.084-7.417-1.129c-2.991-1.316-5.302-3.422-6.677-6.364
		c-2.839-6.07-2.792-12.193,0.458-18.076c2.526-4.574,6.658-6.731,11.864-6.875c2.537-0.067,4.961,0.363,7.218,1.555
		c3.359,1.775,5.512,4.576,6.77,8.108C98.725,189.707,99.066,191.946,99.052,194.242z M92.386,195.087
		c-0.021-3.178-0.346-5.517-1.558-7.649c-1.5-2.636-3.811-3.839-6.817-3.716c-2.836,0.115-4.92,1.437-6.236,3.961
		c-1.184,2.271-1.511,4.728-1.426,7.231c0.066,1.914,0.409,3.798,1.304,5.533c1.726,3.343,4.671,4.634,8.402,3.959
		c2.746-0.495,4.402-2.316,5.4-4.8C92.134,197.919,92.412,196.142,92.386,195.087z"/>
	<path fill-rule="evenodd" clip-rule="evenodd" d="M130.555,194.279c-0.003,3.457-0.713,6.735-2.584,9.684
		c-2.211,3.487-5.361,5.566-9.459,6.199c-2.461,0.38-4.892,0.286-7.276-0.459c-3.308-1.034-5.837-3.062-7.63-6.029
		c-3.361-5.564-3.181-14.345,0.461-19.694c2.698-3.964,6.486-5.92,11.24-6.093c2.339-0.082,4.599,0.247,6.743,1.239
		c3.843,1.776,6.205,4.833,7.54,8.762C130.266,189.879,130.554,191.926,130.555,194.279z M107.888,194.334
		c-0.031,1.858,0.271,3.835,1.101,5.716c1.778,4.035,5.638,5.322,9.517,4.104c2.432-0.765,3.78-2.645,4.619-4.947
		c0.499-1.366,0.721-2.795,0.769-4.235c0.077-2.321-0.178-4.607-1.151-6.756c-1.252-2.775-3.366-4.354-6.446-4.49
		c-3.29-0.145-5.699,1.277-7.152,4.235C108.185,189.907,107.884,192.001,107.888,194.334z"/>
	<path fill-rule="evenodd" clip-rule="evenodd" d="M41.114,215.645c2.237,0,4.357,0,6.561,0c0,3.932,0,7.814,0,11.771
		c3.996,0,7.907,0,11.905,0c0-3.882,0-7.767,0-11.623c0.829-0.242,4.449-0.31,6.521-0.143c0.23,0.746,0.327,28.755,0.104,30.788
		c-0.754,0.241-4.174,0.315-6.565,0.128c-0.034-1.45-0.011-2.919-0.015-4.384c-0.004-1.445-0.001-2.889-0.001-4.332
		c0-1.472,0-2.943,0-4.472c-3.98,0-7.865,0-11.9,0c-0.04,1.439-0.013,2.903-0.017,4.365c-0.004,1.445-0.001,2.89-0.001,4.334
		c0,1.472,0,2.945,0,4.483c-2.234,0-4.379,0-6.591,0C41.114,236.256,41.114,225.988,41.114,215.645z"/>
	<path fill-rule="evenodd" clip-rule="evenodd" d="M71.04,215.654c2.286,0,4.4,0,6.639,0c0,0.441,0,0.827,0,1.214
		c0,5.851-0.019,11.698,0.015,17.549c0.006,1.11,0.1,2.241,0.331,3.323c0.437,2.052,1.84,3.198,3.839,3.639
		c1.173,0.26,2.351,0.239,3.547,0.07c2.979-0.419,3.966-2.066,4.335-4.591c0.125-0.853,0.142-1.726,0.143-2.591
		c0.012-5.777,0.006-11.554,0.006-17.331c0-0.395,0-0.788,0-1.163c0.837-0.219,5.289-0.257,6.573-0.062
		c0.021,0.296,0.062,0.608,0.062,0.922c0.004,6.211,0.024,12.421-0.015,18.632c-0.006,1.217-0.136,2.454-0.391,3.645
		c-0.86,4.045-3.39,6.623-7.313,7.767c-3.508,1.025-7.06,0.994-10.549-0.13c-3.899-1.252-6.159-3.998-6.895-7.99
		c-0.208-1.129-0.306-2.29-0.312-3.439c-0.03-6.139-0.014-12.276-0.014-18.414C71.04,216.379,71.04,216.06,71.04,215.654z"/>
	<path fill-rule="evenodd" clip-rule="evenodd" d="M67.333,189.084c-2.144,0-4.226,0-6.359,0c-0.066-0.202-0.14-0.396-0.198-0.598
		c-0.936-3.232-4.099-5.213-7.438-4.713c-2.843,0.422-4.717,2.041-5.8,4.618c-0.966,2.301-1.231,4.725-1.024,7.204
		c0.136,1.628,0.445,3.215,1.17,4.692c1.056,2.162,2.673,3.691,5.094,4.114c1.013,0.176,2.096,0.177,3.115,0.034
		c1.874-0.26,3.243-1.371,4.102-3.031c0.409-0.793,0.654-1.673,0.947-2.52c0.126-0.37,0.185-0.762,0.281-1.176
		c2.109,0,4.186,0,6.337,0c-0.115,1.921-0.53,3.695-1.313,5.365c-2.207,4.708-5.982,7.044-11.125,7.274
		c-3.545,0.159-6.798-0.692-9.622-2.906c-2.567-2.007-4.167-4.671-4.978-7.792c-1.331-5.113-1.02-10.106,1.602-14.766
		c2.586-4.592,6.654-6.842,11.9-6.999c3.005-0.088,5.8,0.588,8.284,2.33C65.363,182.361,66.911,185.368,67.333,189.084z"/>
	<path fill-rule="evenodd" clip-rule="evenodd" d="M135.274,221.413c-3.054,0-5.934,0-8.797,0c-0.226-0.889-0.246-4.703-0.034-5.764
		c8.062,0,16.135,0,24.282,0c0,1.891,0,3.75,0,5.688c-0.942,0.192-1.91,0.057-2.866,0.079c-0.975,0.025-1.949,0.007-2.926,0.007
		c-0.968,0-1.933,0-3.015,0c0,8.42,0,16.742,0,25.136c-2.259,0-4.404,0-6.645,0C135.274,238.203,135.274,229.878,135.274,221.413z"
		/>
	<path fill-rule="evenodd" clip-rule="evenodd" d="M140.671,203.896c4.895,0,9.643,0,14.445,0c0,1.946,0,3.804,0,5.734
		c-7.016,0-13.994,0-21.039,0c0-10.301,0-20.563,0-30.895c2.193,0,4.336,0,6.594,0c0,4.214,0,8.389,0,12.566
		C140.671,195.447,140.671,199.591,140.671,203.896z"/>
	<path fill-rule="evenodd" clip-rule="evenodd" d="M153.565,246.532c0-10.299,0-20.537,0-30.766
		c0.795-0.212,4.701-0.269,6.456-0.104c0.194,0.804,0.273,28.72,0.086,30.798C159.356,246.668,155.148,246.726,153.565,246.532z"/>
</g>
</svg>
